# AST/ASF file generated using VICON BodyLanguage
# -----------------------------------------------
:version 1.10
:name VICON
:units
  mass 1.0
  length 0.45
  angle deg
:documentation
   .ast/.asf automatically generated from VICON data using
   VICON BodyBuilder and BodyLanguage model FoxedUp or BRILLIANT.MOD
:root
   order TX TY TZ RX RY RZ
   axis XYZ
   position 0 0 0  
   orientation 0 0 0 
:bonedata
  begin
     id 1 
     name lhipjoint
     direction 0.561145 -0.797705 0.220866 
     length 2.46425 
     axis 0 0 0  XYZ
  end
  begin
     id 2 
     name lfemur
     direction 0.34202 -0.939693 0  
     length 7.95556  
     axis 0 0 20  XYZ
    dof rx ry rz
    limits (-160.0 20.0)
           (-70.0 70.0)
           (-60.0 70.0)
  end
  begin
     id 3 
     name ltibia
     direction 0.34202 -0.939693 0   
     length 7.9832   
     axis 0 0 20   XYZ
    dof rx
    limits (-10.0 170.0)
  end
  begin
     id 4 
     name lfoot
     direction 0.0723927 -0.198897 0.977343   
     length 2.23085   
     axis -90 7.62852e-016 20   XYZ
    dof rx rz
    limits (-45.0 90.0)
           (-70.0 20.0)
  end
  begin
     id 5 
     name ltoes
     direction 1.53826e-011 -4.21988e-011 1   
     length 1.12127   
     axis -90 7.62852e-016 20   XYZ
    dof rx
    limits (-90.0 20.0)
  end
  begin
     id 6 
     name rhipjoint
     direction -0.610499 -0.763299 0.21134   
     length 2.57533  
     axis 0 0 0  XYZ 
  end
  begin
     id 7 
     name rfemur
     direction -0.34202 -0.939693 0   
     length 8.65257   
     axis 0 0 -20   XYZ
    dof rx ry rz
    limits (-160.0 20.0)
           (-70.0 70.0)
           (-70.0 60.0)
  end
  begin
     id 8 
     name rtibia
     direction -0.342021 -0.939692 0   
     length 7.37807   
     axis 0 0 -20   XYZ
    dof rx
    limits (-10.0 170.0)
 end
 begin
     id 9 
     name rfoot
     direction -0.0239304 -0.0543852 0.998233   
     length 1.87018  
     axis -90 -7.62852e-016 -20   XYZ
    dof rx rz
    limits (-45.0 90.0)
           (-20.0 70.0)
  end
  begin
     id 10 
     name rtoes
     direction -1.53584e-011 -4.2242e-011 1   
     length 0.951568   
     axis -90 -7.62852e-016 -20   XYZ
    dof rx
    limits (-90.0 20.0)
  end
  begin
     id 11 
     name lowerback
     direction 0.00322089 0.999033 0.0438587   
     length 2.07568   
     axis 0 0 0   XYZ
    dof rx ry rz
    limits (-20.0 45.0)
           (-30.0 30.0)
           (-30.0 30.0)
  end
  begin
     id 12 
     name upperback
     direction -0.00321932 0.999732 -0.0229403   
     length 2.06253   
     axis 0 0 0   XYZ
    dof rx ry rz
    limits (-20.0 45.0)
           (-30.0 30.0)
           (-30.0 30.0)
  end
  begin
     id 13 
     name thorax
     direction -0.00537537 0.998955 -0.0453918   
     length 2.06975   
     axis 0 0 0   XYZ
    dof rx ry rz
    limits (-20.0 45.0)
           (-30.0 30.0)
           (-30.0 30.0)
  end
  begin
     id 14 
     name lowerneck
     direction -0.00013604 0.994111 0.108363   
     length 1.50836   
     axis 0 0 0   XYZ
    dof rx ry rz
    limits (-20.0 45.0)
           (-30.0 30.0)
           (-30.0 30.0)
  end
  begin
     id 15 
     name upperneck
     direction 0.0397262 0.983859 -0.174482   
     length 1.53037   
     axis 0 0 0   XYZ
    dof rx ry rz
    limits (-20.0 45.0)
           (-30.0 30.0)
           (-30.0 30.0)
  end
  begin
     id 16
     name head
     direction 0.0109991 0.997082 -0.0755378  
     length 1.56928  
     axis 0 0 0   XYZ
    dof rx ry rz
    limits (-20.0 45.0)
           (-30.0 30.0)
           (-30.0 30.0)
  end
  begin
     id 17 
     name lclavicle
     direction 0.964749 0.254 -0.068874  
     length 3.26503  
     axis 0 0 0   XYZ
    dof ry rz
    limits (-20.0 10.0)
           (0.0 20.0)
  end
  begin
     id 18 
     name lhumerus
     direction 1 -4.48941e-011 -2.05079e-027   
     length 5.68236   
     axis 180 -30 -90   XYZ
    dof rx ry rz
    limits (-60.0 90.0)
           (-90.0 90.0)
           (-90.0 90.0)
  end
  begin
     id 19
     name lradius
     direction 1 -4.48956e-011 6.2882e-027   
     length 3.17112   
     axis 180 -30 -90   XYZ
    dof rx
    limits (-10.0 170.0)
  end
  begin
     id 20
     name lwrist
     direction 1 -4.49014e-011 1.73219e-026   
     length 1.58556   
     axis -1.04724e-014 90 90   XYZ
    dof ry
    limits (-180.0 0.0)
 end
  begin
     id 21 
     name lhand
     direction 1 -4.49312e-011 3.46438e-026   
     length 0.632691   
     axis -2.21057e-014 90 90   XYZ
    dof rx rz
    limits (-90.0 90.0)
           (-45.0 45.0)
  end
  begin
     id 22 
     name lfingers
     direction 1 -4.48894e-011 6.92876e-026   
     length 0.510091   
     axis -4.42114e-014 90 90   XYZ
    dof rx
    limits (0.0 90.0)
  end
  begin
     id 23
     name lthumb
     direction 0.707107 -6.34705e-011 0.707107   
     length 0.732392   
     axis -90 45 2.85299e-015   XYZ
    dof rx rz
    limits (-45.0 45.0)
           (-45.0 45.0)
  end
  begin
     id 24 
     name rclavicle
     direction -0.954374 0.280496 -0.102435   
     length 3.25419  
     axis 0 0 0   XYZ 
    dof ry rz
    limits (-10.0 20.0)
           (-20.0 0.0)
  end
  begin
     id 25 
     name rhumerus
     direction -1 -4.48994e-011 -1.07204e-017  
     length 5.8712   
     axis 180 30 90   XYZ
    dof rx ry rz
    limits (-90.0 60.0)
           (-90.0 90.0)
           (-90.0 90.0)
  end
  begin
     id 26 
     name rradius
     direction -1 -4.48972e-011 5.89292e-027   
     length 3.37589   
     axis 180 30 90   XYZ
    dof rx
    limits (-10.0 170.0)
  end
  begin
     id 27 
     name rwrist
     direction -1 -4.48942e-011 1.73219e-026   
     length 1.68794   
     axis -1.04724e-014 -90 -90   XYZ
    dof ry
    limits (-180.0 0.0)
  end
  begin
     id 28
     name rhand
     direction -1 -4.48514e-011 3.46438e-026   
     length 0.603257   
     axis -2.21057e-014 -90 -90   XYZ
    dof rx rz
    limits (-90.0 90.0)
           (-45.0 45.0)
  end
  begin
     id 29
     name rfingers
     direction -1 -4.50028e-011 6.92876e-026   
     length 0.486362   
     axis -4.42114e-014 -90 -90   XYZ
    dof rx
    limits (0.0 90.0)
  end
  begin
     id 30
     name rthumb
     direction -0.707107 -6.34926e-011 0.707107   
     length 0.698321   
     axis -90 -45 -2.85299e-015   XYZ
    dof rx rz
    limits (-45.0 45.0)
           (-45.0 45.0)
  end
:hierarchy
  begin
    root lhipjoint rhipjoint lowerback
    lhipjoint lfemur
    lfemur ltibia
    ltibia lfoot
    lfoot ltoes
    rhipjoint rfemur
    rfemur rtibia
    rtibia rfoot
    rfoot rtoes
    lowerback upperback
    upperback thorax
    thorax lowerneck lclavicle rclavicle
    lowerneck upperneck
    upperneck head
    lclavicle lhumerus
    lhumerus lradius
    lradius lwrist
    lwrist lhand lthumb
    lhand lfingers
    rclavicle rhumerus
    rhumerus rradius
    rradius rwrist
    rwrist rhand rthumb
    rhand rfingers
  end

#!OML:ASF I:\Segmentation\Patient Classification 1\Patient 1\Session 1\Patient1.ASF
:FULLY-SPECIFIED
:DEGREES
4007
root 25.3351 17.9228 -5.65142 483.149 -446.191 -1918.6
lowerback -9.26606 0.115633 -3.07245
upperback 2.55679 0.517718 0.178232
thorax 7.8881 0.0978543 2.0013
lowerneck -19.3408 0.746202 -2.35215
upperneck 21.2414 1.22864 1.62224
head 9.92423 0.516824 1.12446
rclavicle 1.14301e-015 -6.36111e-015
rhumerus -40.8803 10.6589 -85.1768
rradius 80.9017
rwrist -6.72605
rhand -19.6512 32.1322
rfingers 7.12502
rthumb 6.67657 2.25746
lclavicle 1.14301e-015 -6.36111e-015
lhumerus -40.617 -17.1245 88.3208
lradius 93.1954
lwrist 23.9451
lhand -14.8109 34.0717
lfingers 7.12502
lthumb 11.3472 63.7447
rfemur -31.3778 3.98409 17.3912
rtibia 71.3172
rfoot -5.6221 -4.5124
rtoes -38.7726
lfemur -26.1843 3.09083 -20.8994
ltibia 43.6587
lfoot -22.6555 -6.72134
ltoes -19.385
4008
root 25.3411 17.9322 -5.66423 486.229 -446.153 -1921.53
lowerback -9.4465 0.181592 -3.08396
upperback 2.54323 0.621814 0.0663902
thorax 7.973 0.149616 1.90778
lowerneck -19.2868 0.738056 -2.2566
upperneck 21.0451 1.19997 1.58839
head 9.84596 0.510621 1.09054
rclavicle 6.06293e-015 -9.54166e-015
rhumerus -41.0611 10.8886 -85.6713
rradius 81.2867
rwrist -7.60801
rhand -19.8851 32.575
rfingers 7.12502
rthumb 6.4507 2.69319
lclavicle 6.06293e-015 -9.54166e-015
lhumerus -40.4558 -17.0893 88.2483
lradius 93.2069
lwrist 23.8813
lhand -14.9137 34.12
lfingers 7.12502
lthumb 11.248 63.7984
rfemur -30.575 3.98997 17.4185
rtibia 70.7074
rfoot -5.81591 -4.33956
rtoes -38.9816
lfemur -26.3148 3.06957 -20.9307
ltibia 43.5938
lfoot -22.7503 -6.62948
ltoes -19.4452
4009
root 25.3555 17.9354 -5.67301 491.987 -445.818 -1926.9
lowerback -9.7374 0.394071 -2.89894
upperback 2.42532 0.897193 -0.0157595
thorax 8.00211 0.295848 1.76408
lowerneck -19.3655 0.692814 -2.30279
upperneck 21.0961 1.1311 1.67589
head 9.87917 0.48527 1.12052
rclavicle -7.35503e-015 -9.54166e-015
rhumerus -41.1904 11.0397 -86.0534
rradius 81.6692
rwrist -8.5385
rhand -19.7585 32.6349
rfingers 7.12502
rthumb 6.57298 2.75691
lclavicle -7.35503e-015 -9.54166e-015
lhumerus -40.3542 -17.1948 88.2958
lradius 93.2594
lwrist 23.8924
lhand -15.2663 33.9286
lfingers 7.12502
lthumb 10.9079 63.6252
rfemur -30.2255 4.11114 17.5248
rtibia 70.0972
rfoot -5.85216 -4.02139
rtoes -39.1204
lfemur -26.7546 3.03496 -20.855
ltibia 43.5742
lfoot -22.8804 -6.31638
ltoes -19.2143
4010
root 25.3773 17.9279 -5.68092 498.684 -445.283 -1933.06
lowerback -10.0804 0.643255 -2.6892
upperback 2.21453 1.21398 -0.0542114
thorax 7.96126 0.464027 1.66117
lowerneck -19.4047 0.677062 -2.38812
upperneck 21.1232 1.13025 1.69984
head 9.89538 0.480591 1.14357
rclavicle 6.16232e-015 -1.51076e-014
rhumerus -41.2891 11.2875 -86.387
rradius 82.0104
rwrist -9.22369
rhand -19.9541 32.4865
rfingers 7.12502
rthumb 6.38417 2.60267
lclavicle 6.16232e-015 -1.51076e-014
lhumerus -40.3114 -17.049 88.3393
lradius 93.278
lwrist 23.8328
lhand -15.5452 33.6936
lfingers 7.12502
lthumb 10.6389 63.4043
rfemur -30.1695 4.40514 17.5971
rtibia 69.4736
rfoot -5.77825 -3.68688
rtoes -39.0764
lfemur -27.4262 3.10207 -20.7719
ltibia 43.5788
lfoot -23.0449 -5.99147
ltoes -18.7631
4011
root 25.3961 17.9285 -5.69368 501.736 -445.008 -1935.68
lowerback -10.355 0.7558 -2.63127
upperback 2.06434 1.36468 -0.0822985
thorax 7.95265 0.542191 1.62777
lowerneck -19.3836 0.665346 -2.4564
upperneck 21.0306 1.13296 1.71509
head 9.85796 0.479632 1.15962
rclavicle -9.93923e-016 1.35174e-014
rhumerus -41.416 11.5556 -86.7339
rradius 82.4124
rwrist -9.83293
rhand -20.3412 32.3345
rfingers 7.12502
rthumb 6.01036 2.43973
lclavicle -9.93923e-016 1.35174e-014
lhumerus -40.233 -16.8188 88.2591
lradius 93.3305
lwrist 23.9272
lhand -15.4457 33.4606
lfingers 7.12502
lthumb 10.7349 63.1664
rfemur -29.843 4.54728 17.663
rtibia 68.7859
rfoot -5.97602 -3.41186
rtoes -39.243
lfemur -27.9493 3.06009 -20.7099
ltibia 43.5671
lfoot -23.1306 -5.7132
ltoes -18.5277
